<?xml version="1.0" encoding="UTF-8" standalone="no" ?>
<!DOCTYPE svg PUBLIC "-//W3C//DTD SVG 1.1//EN" "http://www.w3.org/Graphics/SVG/1.1/DTD/svg11.dtd">
<svg xmlns="http://www.w3.org/2000/svg" xmlns:xlink="http://www.w3.org/1999/xlink" version="1.1" width="1280" height="1024" viewBox="0 0 1280 1024" xml:space="preserve">
<desc>Created with Fabric.js 5.3.0</desc>
<defs>
</defs>
<g transform="matrix(1 0 0 1 640 512)" id="background-logo"  >
<rect style="stroke: none; stroke-width: 0; stroke-dasharray: none; stroke-linecap: butt; stroke-dashoffset: 0; stroke-linejoin: miter; stroke-miterlimit: 4; fill: rgb(255,255,255); fill-opacity: 0; fill-rule: nonzero; opacity: 1;"  paint-order="stroke"  x="-640" y="-512" rx="0" ry="0" width="1280" height="1024" />
</g>
<g transform="matrix(1.9211538461538462 0 0 1.9211538461538462 639.0123330325438 504.2184603600656)" id="text-logo"  >
<g style=""  paint-order="stroke"   >
		<g transform="matrix(1 0 0 1 0 0)" id="text-logo-path-0"  >
<filter id="SVGID_400164" y="-22.96744710525535%" height="145.9348942105107%" x="-22.5179403248143%" width="145.0358806496286%" >
	<feGaussianBlur in="SourceAlpha" stdDeviation="0"></feGaussianBlur>
	<feOffset dx="9.361702127659575" dy="2.3404255319148937" result="oBlur" ></feOffset>
	<feFlood flood-color="rgb(255,70,163)" flood-opacity="1"/>
	<feComposite in2="oBlur" operator="in" />
	<feMerge>
		<feMergeNode></feMergeNode>
		<feMergeNode in="SourceGraphic"></feMergeNode>
	</feMerge>
</filter>
<path style="stroke: rgb(0,0,0); stroke-width: 9.361702127659573; stroke-dasharray: none; stroke-linecap: butt; stroke-dashoffset: 0; stroke-linejoin: miter; stroke-miterlimit: 4; fill: rgb(0,0,0); fill-rule: nonzero; opacity: 1;filter: url(#SVGID_400164);"  paint-order="stroke"  transform=" translate(-190.3, 38.335)" d="M 17.27 0 L 4.95 0 Q 4.4 0 4.4 -0.55 L 4.4 -0.55 L 4.62 -76.12 Q 4.62 -76.56 5.06 -76.56 L 5.06 -76.56 L 26.18 -76.56 Q 36.3 -76.56 42.19 -70.4 Q 48.07 -64.24 48.07 -53.68 L 48.07 -53.68 Q 48.07 -45.87 44.99 -40.15 Q 41.91 -34.43 36.96 -31.35 Q 32.01 -28.27 26.18 -28.27 L 26.18 -28.27 L 17.82 -28.27 L 17.82 -0.55 Q 17.82 0 17.27 0 L 17.27 0 Z M 17.82 -63.36 L 17.82 -41.58 L 26.18 -41.58 Q 29.7 -41.58 32.29 -44.94 Q 34.87 -48.29 34.87 -53.68 L 34.87 -53.68 Q 34.87 -57.97 32.56 -60.72 Q 30.25 -63.47 26.18 -63.47 L 26.18 -63.47 L 17.82 -63.36 Z M 89.65 0 L 77.22 0 Q 76.67 0 76.67 -0.55 L 76.67 -0.55 L 76.78 -76.12 Q 76.78 -76.56 77.22 -76.56 L 77.22 -76.56 L 89.54 -76.56 Q 89.98 -76.56 89.98 -76.12 L 89.98 -76.12 L 90.09 -0.55 Q 90.09 0 89.65 0 L 89.65 0 Z M 145.2 0 L 132.77 0 Q 132.33 0 132.33 -0.55 L 132.33 -0.55 L 132.33 -63.25 L 118.03 -63.25 Q 117.48 -63.25 117.48 -63.8 L 117.48 -63.8 L 117.59 -76.12 Q 117.59 -76.56 118.03 -76.56 L 118.03 -76.56 L 159.83 -76.56 Q 160.38 -76.56 160.38 -76.12 L 160.38 -76.12 L 160.38 -63.8 Q 160.38 -63.25 159.94 -63.25 L 159.94 -63.25 L 145.53 -63.25 L 145.64 -0.55 Q 145.64 0 145.2 0 L 145.2 0 Z M 205.59 1.1 L 205.59 1.1 Q 199.54 1.1 194.65 -1.93 Q 189.75 -4.95 186.89 -10.01 Q 184.03 -15.07 184.03 -21.34 L 184.03 -21.34 L 184.14 -55.66 Q 184.14 -61.71 186.95 -66.72 Q 189.75 -71.72 194.65 -74.75 Q 199.54 -77.77 205.59 -77.77 L 205.59 -77.77 Q 211.64 -77.77 216.48 -74.8 Q 221.32 -71.83 224.18 -66.83 Q 227.04 -61.82 227.04 -55.66 L 227.04 -55.66 L 227.04 -50.6 Q 227.04 -50.16 226.6 -50.16 L 226.6 -50.16 L 214.28 -50.16 Q 213.84 -50.16 213.84 -50.6 L 213.84 -50.6 L 213.84 -55.66 Q 213.84 -59.29 211.48 -61.93 Q 209.11 -64.57 205.59 -64.57 L 205.59 -64.57 Q 201.63 -64.57 199.54 -61.88 Q 197.45 -59.18 197.45 -55.66 L 197.45 -55.66 L 197.45 -21.34 Q 197.45 -17.27 199.82 -14.74 Q 202.18 -12.21 205.59 -12.21 L 205.59 -12.21 Q 209.11 -12.21 211.48 -15.02 Q 213.84 -17.82 213.84 -21.34 L 213.84 -21.34 L 213.84 -26.4 Q 213.84 -26.84 214.28 -26.84 L 214.28 -26.84 L 226.71 -26.84 Q 227.15 -26.84 227.15 -26.4 L 227.15 -26.4 L 227.15 -21.34 Q 227.15 -15.07 224.24 -10.01 Q 221.32 -4.95 216.48 -1.93 Q 211.64 1.1 205.59 1.1 Z M 270.05 0 L 257.62 0 Q 257.18 0 257.18 -0.55 L 257.18 -0.55 L 257.29 -76.12 Q 257.29 -76.56 257.84 -76.56 L 257.84 -76.56 L 270.05 -76.56 Q 270.6 -76.56 270.6 -76.12 L 270.6 -76.12 L 270.49 -46.2 L 286.99 -46.2 L 286.99 -76.12 Q 286.99 -76.56 287.43 -76.56 L 287.43 -76.56 L 299.64 -76.56 Q 300.19 -76.56 300.19 -76.12 L 300.19 -76.12 L 300.41 -0.55 Q 300.41 0 299.86 0 L 299.86 0 L 287.54 0 Q 286.99 0 286.99 -0.55 L 286.99 -0.55 L 286.99 -32.89 L 270.49 -32.89 L 270.49 -0.55 Q 270.49 0 270.05 0 L 270.05 0 Z M 344.3 0 L 331.87 0 Q 331.43 0 331.43 -0.55 L 331.43 -0.55 L 331.65 -76.12 Q 331.65 -76.56 332.09 -76.56 L 332.09 -76.56 L 354.31 -76.56 Q 360.25 -76.56 365.26 -73.64 Q 370.26 -70.73 373.23 -65.83 Q 376.2 -60.94 376.2 -54.78 L 376.2 -54.78 Q 376.2 -50.71 374.99 -47.47 Q 373.78 -44.22 372.13 -41.97 Q 370.48 -39.71 369.16 -38.61 L 369.16 -38.61 Q 375.1 -32.01 375.1 -23.1 L 375.1 -23.1 L 375.21 -0.55 Q 375.21 0 374.66 0 L 374.66 0 L 362.23 0 Q 361.79 0 361.79 -0.33 L 361.79 -0.33 L 361.79 -23.1 Q 361.79 -27.06 358.99 -29.98 Q 356.18 -32.89 352.11 -32.89 L 352.11 -32.89 L 344.85 -32.89 L 344.74 -0.55 Q 344.74 0 344.3 0 L 344.3 0 Z M 344.85 -63.36 L 344.85 -46.09 L 354.31 -46.09 Q 357.72 -46.09 360.36 -48.62 Q 363 -51.15 363 -54.78 L 363 -54.78 Q 363 -58.3 360.42 -60.83 Q 357.83 -63.36 354.31 -63.36 L 354.31 -63.36 L 344.85 -63.36 Z" stroke-linecap="round" />
</g>
</g>
</g>
</svg>